<?xml version="1.0" encoding="UTF-8"?>
<svg id="Layer_2" data-name="Layer 2" xmlns="http://www.w3.org/2000/svg" viewBox="0 0 19.2 10.8">
  <defs>
    <style>
      .cls-1 {
        fill: #111;
      }
    </style>
  </defs>
  <g id="Layer_1-2" data-name="Layer 1">
    <g>
      <path class="cls-1" d="M.16,10.16c-.1-1.59-.16-3.18-.16-4.76v5.4h9.6c-2.99,0-5.98-.06-8.97-.17-.25,0-.46-.21-.48-.47Z"/>
      <path class="cls-1" d="M9.61,0c2.99,0,5.97.06,8.96.17.25,0,.46.21.48.47h0c.1,1.59.16,3.18.16,4.76V0h-9.59Z"/>
      <path class="cls-1" d="M.16.64c.02-.26.22-.46.48-.47C3.62.06,6.61,0,9.59,0H0v5.4C0,3.81.05,2.22.16.64H.16Z"/>
      <path class="cls-1" d="M19.04,10.16c-.02.26-.22.46-.48.47-2.99.11-5.98.17-8.97.17h9.6v-5.4c0,1.59-.05,3.18-.16,4.76h0Z"/>
    </g>
  </g>
</svg>