<?xml version="1.0" encoding="UTF-8"?>
<svg id="Layer_2" data-name="Layer 2" xmlns="http://www.w3.org/2000/svg" viewBox="0 0 3.8 3.8">
  <defs>
    <style>
      .cls-1 {
        fill: #fff;
      }

      .cls-2 {
        fill: #900;
      }
    </style>
  </defs>
  <g id="Layer_1-2" data-name="Layer 1">
    <rect class="cls-2" x="0" y="0" width="3.8" height="3.8" transform="translate(3.8 0) rotate(90)"/>
    <g>
      <path class="cls-1" d="M2.47,1.73s-.03-.08-.06-.11c-.03-.03-.06-.05-.1-.06-.04-.01-.09-.02-.14-.02h-.21v.72h.18c.06,0,.12,0,.16-.03.05-.02.08-.04.11-.07.03-.03.05-.07.06-.12h0s.02-.1.02-.15c0-.06,0-.11-.02-.16ZM2.34,1.9c0,.08-.02.15-.05.19-.03.04-.08.06-.15.06h-.06v-.49h.07s.07,0,.09.02c.02.01.04.03.06.05.01.02.03.05.03.08,0,.03,0,.07,0,.1h0Z"/>
      <polygon class="cls-1" points="3.33 2.27 3.7 1.95 3.33 1.64 3.24 1.73 3.52 1.96 3.24 2.18 3.33 2.27"/>
      <path class="cls-1" d="M2.52,2.25h.13l.04-.14h.25l.04.14h.15l-.21-.72h-.19l-.21.72ZM2.82,1.67l.09.33h-.19l.09-.33h0Z"/>
      <polygon class="cls-1" points=".47 1.64 .1 1.95 .47 2.27 .56 2.18 .28 1.95 .56 1.73 .47 1.64"/>
      <path class="cls-1" d="M1.85,1.73s-.03-.08-.06-.11c-.03-.03-.06-.05-.1-.06-.04-.01-.09-.02-.14-.02h-.21v.72h.18c.06,0,.12,0,.16-.03.05-.02.08-.04.11-.07.03-.03.05-.07.06-.12h0s.02-.1.02-.15c0-.06,0-.11-.02-.16ZM1.73,1.9c0,.08-.02.15-.05.19-.03.04-.08.06-.15.06h-.06v-.49h.07s.07,0,.09.02c.02.01.04.03.06.05.01.02.03.05.03.08,0,.03,0,.07,0,.1h0Z"/>
      <polygon class="cls-1" points="1.13 2.12 1.1 2.03 1.02 1.75 .93 1.75 .85 2.01 .82 2.12 .82 2 .8 1.54 .68 1.54 .72 2.25 .87 2.25 .94 2.03 .97 1.94 .99 2.03 1.06 2.25 1.22 2.25 1.26 1.54 1.15 1.54 1.13 2.01 1.13 2.12"/>
    </g>
  </g>
</svg>