<?xml version="1.0" encoding="UTF-8"?>
<svg id="Layer_2" data-name="Layer 2" xmlns="http://www.w3.org/2000/svg" viewBox="0 0 5.38 5.38">
  <defs>
    <style>
      .cls-1 {
        fill: #fff;
      }

      .cls-2 {
        fill: #900;
      }
    </style>
  </defs>
  <g id="Layer_1-2" data-name="Layer 1">
    <rect class="cls-2" x=".79" y=".79" width="3.8" height="3.8" transform="translate(6.49 2.69) rotate(135)"/>
    <g>
      <path class="cls-1" d="M3.26,2.52s-.03-.08-.06-.11c-.03-.03-.06-.05-.1-.06-.04-.01-.09-.02-.14-.02h-.21v.72h.18c.06,0,.12,0,.16-.03.05-.02.08-.04.11-.07.03-.03.05-.07.06-.12h0s.02-.1.02-.15c0-.06,0-.11-.02-.16ZM3.13,2.68c0,.08-.02.15-.05.19-.03.04-.08.06-.15.06h-.06v-.49s.07,0,.07,0c.04,0,.07,0,.09.02.02.01.04.03.06.05.01.02.03.05.03.08,0,.03,0,.07,0,.1h0Z"/>
      <polygon class="cls-1" points="4.12 3.05 4.49 2.74 4.12 2.43 4.03 2.52 4.3 2.74 4.03 2.97 4.12 3.05"/>
      <path class="cls-1" d="M3.31,3.04h.13s.04-.14.04-.14h.25s.04.14.04.14h.15l-.21-.72h-.19l-.21.72ZM3.61,2.45l.09.33h-.19l.09-.33h0Z"/>
      <polygon class="cls-1" points="1.26 2.43 .89 2.74 1.26 3.05 1.34 2.97 1.07 2.74 1.34 2.52 1.26 2.43"/>
      <path class="cls-1" d="M2.64,2.52s-.03-.08-.06-.11c-.03-.03-.06-.05-.1-.06-.04-.01-.09-.02-.14-.02h-.21v.72h.18c.06,0,.12,0,.16-.03.05-.02.08-.04.11-.07.03-.03.05-.07.06-.12h0s.02-.1.02-.15c0-.06,0-.11-.02-.16ZM2.51,2.68c0,.08-.02.15-.05.19-.03.04-.08.06-.15.06h-.06v-.49h.07s.07,0,.09.02c.02.01.04.03.06.05.01.02.03.05.03.08,0,.03,0,.07,0,.1h0Z"/>
      <polygon class="cls-1" points="1.92 2.91 1.89 2.81 1.81 2.54 1.72 2.54 1.64 2.8 1.61 2.91 1.6 2.78 1.59 2.32 1.47 2.32 1.51 3.04 1.66 3.04 1.73 2.82 1.76 2.73 1.78 2.82 1.85 3.04 2.01 3.04 2.05 2.32 1.94 2.32 1.92 2.8 1.92 2.91"/>
    </g>
  </g>
</svg>