<?xml version="1.0" encoding="UTF-8"?>
<svg id="Layer_2" data-name="Layer 2" xmlns="http://www.w3.org/2000/svg" viewBox="0 0 57.6 32.4">
  <defs>
    <style>
      .cls-1 {
        fill: #fff;
      }

      .cls-2 {
        fill: #900;
      }
    </style>
  </defs>
  <g id="Layer_1-2" data-name="Layer 1">
    <rect class="cls-2" x="12.6" y="-12.6" width="32.4" height="57.6" transform="translate(45 -12.6) rotate(90)"/>
    <g>
      <path class="cls-1" d="M29.37,16.03s-.03-.08-.06-.11c-.03-.03-.06-.05-.1-.06-.04-.01-.09-.02-.14-.02h-.21v.72h.18c.06,0,.12,0,.16-.03.05-.02.08-.04.11-.07.03-.03.05-.07.06-.12h0s.02-.1.02-.15c0-.06,0-.11-.02-.16ZM29.24,16.19c0,.08-.02.15-.05.19-.03.04-.08.06-.15.06h-.06v-.49h.07s.07,0,.09.02c.02.01.04.03.06.05.01.02.03.05.03.08,0,.03,0,.07,0,.1h0Z"/>
      <polygon class="cls-1" points="30.23 16.57 30.6 16.25 30.23 15.94 30.14 16.03 30.42 16.25 30.14 16.48 30.23 16.57"/>
      <path class="cls-1" d="M29.42,16.55h.13l.04-.14h.25l.04.14h.15l-.21-.72h-.19l-.21.72ZM29.72,15.97l.09.33h-.19l.09-.33h0Z"/>
      <polygon class="cls-1" points="27.37 15.94 27 16.25 27.37 16.56 27.46 16.48 27.18 16.25 27.46 16.03 27.37 15.94"/>
      <path class="cls-1" d="M28.75,16.03s-.03-.08-.06-.11c-.03-.03-.06-.05-.1-.06-.04-.01-.09-.02-.14-.02h-.21v.72h.18c.06,0,.12,0,.16-.03.05-.02.08-.04.11-.07.03-.03.05-.07.06-.12h0s.02-.1.02-.15c0-.06,0-.11-.02-.16ZM28.63,16.19c0,.08-.02.15-.05.19-.03.04-.08.06-.15.06h-.06v-.49h.07s.07,0,.09.02c.02.01.04.03.06.05.01.02.03.05.03.08,0,.03,0,.07,0,.1h0Z"/>
      <polygon class="cls-1" points="28.03 16.42 28 16.32 27.92 16.05 27.83 16.05 27.75 16.31 27.72 16.42 27.72 16.29 27.7 15.83 27.58 15.83 27.62 16.55 27.77 16.55 27.84 16.33 27.87 16.24 27.89 16.33 27.96 16.55 28.12 16.55 28.16 15.83 28.05 15.83 28.03 16.31 28.03 16.42"/>
    </g>
  </g>
</svg>